<svg width="174" height="32" viewBox="0 0 174 32" fill="none" xmlns="http://www.w3.org/2000/svg">
<path d="M16 32L16 0L0 0L0 32H16Z" fill="#FFBDBD"/>
<path d="M32 32C40.8366 32 48 24.8366 48 16C48 7.16344 40.8366 0 32 0C23.1634 0 16 7.16344 16 16C16 24.8366 23.1634 32 32 32Z" fill="#4C40F7"/>
<path d="M168.54 22V25.42H165V22H168.54Z" fill="#FF6800"/>
<path d="M52.6406 8.08984V25H54.75V18.9648H58.6523C61.8281 18.9648 64.0898 16.7266 64.0898 13.5156C64.0898 10.3164 61.8516 8.08984 58.6758 8.08984H52.6406ZM54.75 9.96484H58.125C60.5508 9.96484 61.9219 11.2773 61.9219 13.5156C61.9219 15.7656 60.5391 17.0898 58.125 17.0898H54.75V9.96484ZM66.1992 25H68.2383V17.4062C68.2383 15.6836 69.2695 14.5469 70.8516 14.5469C71.3438 14.5469 71.7773 14.6055 71.9414 14.6641V12.6836C71.7773 12.6602 71.4727 12.6016 71.1211 12.6016C69.6914 12.6016 68.5664 13.457 68.168 14.8047H68.1211V12.8125H66.1992V25ZM77.9062 14.3711C79.8281 14.3711 81.1055 15.8242 81.1523 17.8633H74.5312C74.6602 15.8359 75.9961 14.3711 77.9062 14.3711ZM81.1055 21.5078C80.7656 22.6562 79.6289 23.4414 78.082 23.4414C75.8906 23.4414 74.5195 21.9062 74.5195 19.5742V19.457H83.2617V18.6836C83.2617 14.9922 81.2344 12.6016 77.9414 12.6016C74.5781 12.6016 72.4219 15.168 72.4219 18.9531C72.4219 22.7852 74.543 25.2109 78.0352 25.2109C80.6953 25.2109 82.7578 23.6406 83.1094 21.5078H81.1055ZM85.3242 25H87.3633V17.3594C87.3633 15.6719 88.5352 14.4062 90.1523 14.4062C91.6641 14.4062 92.6484 15.3672 92.6484 16.832V25H94.6875V17.2539C94.6875 15.6016 95.8242 14.4062 97.4414 14.4062C99.0469 14.4062 99.9727 15.3906 99.9727 17.0547V25H102.012V16.5859C102.012 14.1719 100.453 12.6016 98.0391 12.6016C96.3281 12.6016 94.8984 13.4688 94.2188 14.9219H94.1719C93.6445 13.4453 92.4141 12.6016 90.75 12.6016C89.1094 12.6016 87.8672 13.4688 87.293 14.7578H87.2461V12.8125H85.3242V25ZM116.238 25C119.836 25 121.969 23.2305 121.969 20.2539C121.969 18.0039 120.492 16.3867 118.195 16.0938V16C119.824 15.707 121.113 14.0664 121.113 12.3086C121.113 9.77734 119.156 8.08984 116.262 8.08984H109.852V25H116.238ZM111.961 9.95312H115.781C117.832 9.95312 118.98 10.8789 118.98 12.5547C118.98 14.3828 117.621 15.3789 115.125 15.3789H111.961V9.95312ZM111.961 23.1367V17.1953H115.723C118.418 17.1953 119.801 18.1914 119.801 20.1484C119.801 22.1055 118.465 23.1367 115.922 23.1367H111.961ZM124.148 25H126.188V17.8984C126.188 15.7891 127.441 14.4062 129.469 14.4062C131.379 14.4062 132.352 15.5664 132.352 17.5V25H134.391V17.125C134.391 14.4062 132.773 12.6016 130.102 12.6016C128.25 12.6016 126.914 13.3984 126.234 14.7578H126.188V8.08984H124.148V25ZM141 23.4766C139.535 23.4766 138.562 22.7148 138.562 21.5547C138.562 20.4062 139.5 19.6797 141.141 19.5742L144.398 19.375V20.3711C144.398 22.1289 142.922 23.4766 141 23.4766ZM140.543 25.2109C142.184 25.2109 143.73 24.2969 144.457 22.9023H144.504V25H146.438V16.5742C146.438 14.1484 144.633 12.6016 141.773 12.6016C138.891 12.6016 137.086 14.2188 136.945 16.3281H138.914C139.172 15.1328 140.156 14.3945 141.727 14.3945C143.414 14.3945 144.398 15.2852 144.398 16.7734V17.793L140.906 17.9922C138.094 18.1562 136.488 19.4688 136.488 21.5547C136.488 23.7461 138.117 25.2109 140.543 25.2109ZM149.684 9.87109V12.8125H147.867V14.4883H149.684V21.8359C149.684 24.1797 150.551 25.0938 152.789 25.0938C153.27 25.0938 153.832 25.0586 154.078 25V23.2891C153.938 23.3125 153.469 23.3477 153.234 23.3477C152.191 23.3477 151.723 22.8438 151.723 21.7305V14.4883H154.09V12.8125H151.723V9.87109H149.684ZM156.926 9.87109V12.8125H155.109V14.4883H156.926V21.8359C156.926 24.1797 157.793 25.0938 160.031 25.0938C160.512 25.0938 161.074 25.0586 161.32 25V23.2891C161.18 23.3125 160.711 23.3477 160.477 23.3477C159.434 23.3477 158.965 22.8438 158.965 21.7305V14.4883H161.332V12.8125H158.965V9.87109H156.926Z" fill="black"/>
</svg>
